<svg xmlns="http://www.w3.org/2000/svg" version="1.1" xmlns:xlink="http://www.w3.org/1999/xlink" xmlns:svgjs="http://svgjs.dev/svgjs" width="2000" height="2111" viewBox="0 0 2000 2111"><g transform="matrix(1,0,0,1,1.4062011432043846,0.8562340948960809)"><svg viewBox="0 0 234 247" data-background-color="#ffffff" preserveAspectRatio="xMidYMid meet" height="2111" width="2000" xmlns="http://www.w3.org/2000/svg" xmlns:xlink="http://www.w3.org/1999/xlink"><g id="tight-bounds" transform="matrix(1,0,0,1,-0.1644264716318844,-0.09997365579206985)"><svg viewBox="0 0 234.32877577023498 247.2" height="247.2" width="234.32877577023498"><g><svg viewBox="0 0 234.32877577023498 247.2" height="247.2" width="234.32877577023498"><g><svg viewBox="0 0 234.32877577023498 247.2" height="247.2" width="234.32877577023498"><g id="textblocktransform"><svg viewBox="0 0 234.32877577023498 247.2" height="247.2" width="234.32877577023498" id="textblock"><g><svg viewBox="0 0 234.32877577023498 247.2" height="247.2" width="234.32877577023498"><path d="M233.78 53.02C232.679 27.36 229.539 20.227 229.539 20.227 219.9-6.202 207.87-0.506 197.063 3.292 177.983 3.446 158.979 9.091 139.943 12.119 99.987 12.581 59.69 4.986 19.932 23.717 16.197 29.464-3.874 24.846 0.664 56.304 1.854 69.39 6.194 83.913 6.062 95.922 6.657 98.026 7.483 93.202 7.836 96.23 9.07 104.39 11.086 100.541 12.738 105.365 10.436 118.246 12.088 128.971 13.664 140.21 10.887 143.135 7.329 141.749 5.732 151.449 5.567 158.479 4.674 157.145 3.694 156.837 2.978 156.632 1.535 157.402 1.777 159.608 2.603 167.152-0.944 171.514 1.281 178.904-0.25 186.91 2.339 193.838 1.986 202.511 1.942 204.255 2.185 205.744 2.57 206.154 4.278 208.361 1.788 212.672 2.052 217.342 19.568 249.262 38.571 227.195 56.517 241.872 61.177 231.608 57.674 245.516 59.535 243.36 60.99 240.846 62.047 251.263 63.689 245.362 63.942 243.668 63.556 239.665 64.46 240.435 64.933 240.846 65.352 240.743 65.418 238.382 65.517 234.841 64.647 237.048 64.416 235.201 66.916 225.861 66.299 248.081 68.646 247.158 68.536 244.438 67.853 240.538 69.252 241.051 70.64 237.151 70.684 233.918 71.918 242.693 71.962 244.592 72.182 245.926 72.535 246.85 76.39 237.305 80.224 250.237 84.267 245.926 86.746 241.205 89.125 248.492 91.637 246.696 92.518 245.259 93.41 242.693 94.259 247.004 104.647 247.928 115.718 244.079 125.567 247.158 151.885 241.41 180.01 249.518 207.76 241.923 214.303 238.998 221.1 234.841 227.479 231.506 227.479 231.506 232.645 222.371 232.645 181.316S233.747 145.393 233.912 112.703C234.078 80.013 234.849 78.679 233.747 53.02Z" opacity="1" fill="#ff0000" data-fill-palette-color="tertiary"></path><g transform="matrix(1,0,0,1,55.768319999999996,26.230666666666668)"><svg width="122.79213577023499" viewBox="2.98 -36.87 23.579999999999995 37.41" height="194.73866666666666" data-palette-color="#ffffff"><path d="M24.37-23.54L24.37-23.54Q23.93-22.61 23.17-21.78 22.41-20.95 21.73-20.21L21.73-20.21Q21.19-19.68 20.8-19.04 20.41-18.41 19.92-17.87L19.92-17.87Q19.53-17.43 19.14-17.07 18.75-16.7 18.41-16.26L18.41-16.26Q18.16-16.06 17.94-15.87 17.72-15.67 17.53-15.38L17.53-15.38Q18.26-13.82 19.26-12.55 20.26-11.28 21.34-10.01L21.34-10.01Q21.88-9.38 22.41-8.81 22.95-8.25 23.34-7.62L23.34-7.62Q23.68-6.88 24.05-6.52 24.41-6.15 24.71-5.76L24.71-5.76Q25-5.27 25.22-4.91 25.44-4.54 25.83-4.2L25.83-4.2Q25.83-3.96 26.12-3.74 26.42-3.52 26.51-3.27L26.51-3.27Q26.51-3.03 26.54-2.88 26.56-2.73 26.56-2.64L26.56-2.64Q26.42-2.25 26.05-1.98 25.68-1.71 25.39-1.42L25.39-1.42Q24.9-1.42 24.56-1.12 24.22-0.83 23.63-0.83L23.63-0.83Q23.39-0.63 23.24-0.42 23.1-0.2 22.85 0L22.85 0Q22.46 0 22.14 0.22 21.83 0.44 21.44 0.54L21.44 0.54Q20.95 0.24 20.65-0.22 20.36-0.68 19.87-0.93L19.87-0.93Q19.82-1.17 19.7-1.34 19.58-1.51 19.48-1.71L19.48-1.71Q18.65-2.64 17.92-3.66 17.19-4.69 16.46-5.71L16.46-5.71Q16.06-6.15 15.65-6.57 15.23-6.98 14.84-7.47L14.84-7.47Q14.6-7.76 14.36-8.15 14.11-8.54 13.82-8.89L13.82-8.89Q13.48-9.18 13.23-9.57 12.99-9.96 12.65-10.21L12.65-10.21Q12.21-9.96 11.87-9.57 11.52-9.18 11.08-8.89L11.08-8.89Q10.69-8.54 10.33-8.2 9.96-7.86 9.57-7.57L9.57-7.57Q9.47-6.45 9.47-5.4 9.47-4.35 9.47-3.32L9.47-3.32Q9.47-2.49 9.45-1.73 9.42-0.98 9.23-0.2L9.23-0.2Q8.98-0.15 8.76-0.46 8.54-0.78 8.3-0.83L8.3-0.83Q8.11-0.78 7.98-0.63 7.86-0.49 7.62-0.59L7.62-0.59Q7.37-0.34 6.88-0.15L6.88-0.15Q6.64-0.15 6.35-0.07 6.05 0 5.81 0L5.81 0Q5.42 0 5.27-0.1L5.27-0.1Q4.79 0.24 4.47 0.27 4.15 0.29 3.96 0.29L3.96 0.29Q3.86-0.05 3.76-0.37 3.66-0.68 3.61-1.07L3.61-1.07Q3.47-1.27 3.39-1.51 3.32-1.76 3.22-2L3.22-2Q3.27-2.15 3.27-2.34 3.27-2.54 3.27-2.73L3.27-2.73Q3.27-3.56 3.22-4.35 3.17-5.13 3.27-5.96L3.27-5.96Q3.17-6.2 3.13-6.45 3.08-6.69 3.08-6.93L3.08-6.93Q3.08-7.08 3.1-7.28 3.13-7.47 3.22-7.57L3.22-7.57Q3.08-8.2 3.05-8.91 3.03-9.62 3.03-10.25L3.03-10.25Q3.03-10.6 3.1-10.96 3.17-11.33 3.17-11.72L3.17-11.72Q3.17-12.55 3.08-13.33 2.98-14.11 2.98-14.89L2.98-14.89Q3.03-15.43 3.03-15.72L3.03-15.72Q3.03-16.02 3.08-16.31 3.13-16.6 3.03-16.89L3.03-16.89Q3.08-17.14 3.15-17.26 3.22-17.38 3.22-17.63L3.22-17.63Q3.22-18.26 3.25-18.87 3.27-19.48 3.27-20.17L3.27-20.17Q3.27-20.65 3.3-21.12 3.32-21.58 3.32-22.12L3.32-22.12Q3.32-22.56 3.39-22.95 3.47-23.34 3.52-23.73L3.52-23.73Q3.56-24.17 3.56-24.58 3.56-25 3.56-25.39L3.56-25.39Q3.56-26.42 3.56-27.47 3.56-28.52 3.47-29.54L3.47-29.54Q3.42-29.79 3.37-30.08 3.32-30.37 3.32-30.66L3.32-30.66Q3.22-31.59 3.17-32.57 3.13-33.54 2.98-34.52L2.98-34.52Q3.08-34.67 3.08-34.84 3.08-35.01 3.08-35.16L3.08-35.16Q3.08-35.4 3.08-35.62 3.08-35.84 3.03-36.08L3.03-36.08Q3.13-36.18 3.22-36.3 3.32-36.43 3.42-36.52L3.42-36.52Q3.71-36.52 4.03-36.5 4.35-36.47 4.59-36.28L4.59-36.28Q4.83-36.38 5.15-36.5 5.47-36.62 5.71-36.62L5.71-36.62Q6.1-36.62 6.3-36.43L6.3-36.43Q6.54-36.52 6.57-36.65 6.59-36.77 6.93-36.77L6.93-36.77Q7.57-36.82 7.84-36.82 8.11-36.82 8.35-36.87L8.35-36.87Q8.5-36.77 8.59-36.62 8.69-36.47 8.79-36.33L8.79-36.33Q9.86-35.94 10.52-35.23 11.18-34.52 12.01-34.03L12.01-34.03Q12.21-33.89 12.4-33.79 12.6-33.69 12.79-33.59L12.79-33.59Q13.23-33.3 13.67-32.96 14.11-32.62 14.6-32.37L14.6-32.37Q15.09-32.13 15.16-32.1 15.23-32.08 15.28-31.98L15.28-31.98Q16.36-31.59 17.21-30.93 18.07-30.27 19.04-29.74L19.04-29.74Q19.38-29.54 19.9-29.35 20.41-29.15 20.92-28.93 21.44-28.71 21.9-28.47 22.36-28.22 22.61-27.93L22.61-27.93Q23.14-27.39 23.56-27.17 23.97-26.95 24.37-26.66L24.37-26.66 24.41-25.34Q24.41-25 24.34-24.71 24.27-24.41 24.27-24.07L24.27-24.07Q24.27-23.83 24.37-23.54ZM17.68-24.8L17.68-24.8Q17.14-25.1 16.6-25.37 16.06-25.63 15.67-26.12L15.67-26.12Q15.33-26.22 14.45-26.59 13.57-26.95 12.67-27.37 11.77-27.78 11.01-28.1 10.25-28.42 10.16-28.42L10.16-28.42Q10.01-28.37 10.01-27.78 10.01-27.2 10.01-26.51 10.01-25.83 10.01-25.2 10.01-24.56 10.01-24.41L10.01-24.41Q10.01-23.49 9.96-22.61 9.91-21.73 9.81-20.8L9.81-20.8Q9.72-20.65 9.67-20.53 9.62-20.41 9.57-20.26L9.57-20.26Q9.47-19.58 9.47-18.46 9.47-17.33 9.47-16.65L9.47-16.65Q9.47-16.31 9.47-16.02 9.47-15.72 9.52-15.33L9.52-15.33Q9.77-15.33 9.86-15.45 9.96-15.58 10.21-15.67L10.21-15.67Q10.84-16.36 11.47-16.99 12.11-17.63 12.79-18.31L12.79-18.31Q13.09-18.6 13.38-18.95 13.67-19.29 14.01-19.53L14.01-19.53Q14.26-19.82 14.45-20.09 14.65-20.36 14.89-20.61L14.89-20.61Q15.58-21.34 16.31-22.05 17.04-22.75 17.53-23.63L17.53-23.63Q17.87-23.88 18.16-24.41L18.16-24.41Q17.82-24.46 17.68-24.8Z" opacity="1" transform="matrix(1,0,0,1,0,0)" fill="#ffffff" class="wordmark-text-0" data-fill-palette-color="quaternary" id="text-0"></path></svg></g></svg></g></svg></g></svg></g><g></g></svg></g><defs></defs></svg><rect width="234.32877577023498" height="247.2" fill="none" stroke="none" visibility="hidden"></rect></g></svg></g></svg>